<svg width="85" height="74" viewBox="0 0 85 74" fill="none" xmlns="http://www.w3.org/2000/svg">
<path d="M5.10156 28.2812C4.96094 27.7188 4.84375 27.1094 4.75 26.4531L4.46875 24.4844C4.28125 23.0781 4.1875 21.4375 4.1875 19.5625C4.1875 17.6406 4.60938 15.4375 5.45312 12.9531C6.34375 10.4688 7.77344 8.3125 9.74219 6.48438C13.9609 2.54688 20.4766 0.578125 29.2891 0.578125L81.5312 46.4922C82 48.1797 82.2344 50.4297 82.2344 53.2422C82.2344 56.0078 81.7656 58.6562 80.8281 61.1875C79.8906 63.6719 78.3906 65.8281 76.3281 67.6562C71.9219 71.6875 65.5 73.7031 57.0625 73.7031L5.59375 28.2812H5.10156ZM82.7266 1.28125C84.1328 3.4375 84.8359 6.39062 84.8359 10.1406C84.8359 17.0781 82.2344 22.2578 77.0312 25.6797L48.8359 1.28125H82.7266ZM3.0625 73C1.65625 70.8438 0.953125 67.8906 0.953125 64.1406C0.953125 57.25 3.53125 52.0938 8.6875 48.6719L36.9531 73H3.0625Z" fill="black"/>
</svg>
