<svg width="61" height="61" viewBox="0 0 61 61" fill="none" xmlns="http://www.w3.org/2000/svg">
<path d="M12.7655 41.6014C12.4996 41.4419 12.2249 41.2558 11.9413 41.0431L11.0906 40.4051C10.488 39.9443 9.83221 39.3594 9.12326 38.6504C8.39659 37.9238 7.72309 36.9312 7.10276 35.6729C6.50015 34.3968 6.22543 33.0409 6.27861 31.6053C6.38495 28.5213 8.10415 25.3134 11.4362 21.9813L48.5496 19.5886C49.3649 20.0494 50.3043 20.8115 51.3677 21.875C52.4134 22.9207 53.2376 24.0993 53.8402 25.4108C54.425 26.7047 54.6732 28.0871 54.5846 29.5582C54.4428 32.7485 52.7767 35.9387 49.5865 39.129L12.9516 41.4153L12.7655 41.6014ZM31.9071 2.04213C33.2541 2.32571 34.6365 3.17645 36.0544 4.59435C38.6775 7.21745 39.6523 10.1596 38.9788 13.4208L19.0928 14.8564L31.9071 2.04213ZM28.9029 59.2808C27.5559 58.9973 26.1735 58.1465 24.7556 56.7286C22.1502 54.1232 21.1754 51.1988 21.8312 47.9554L41.7172 46.4666L28.9029 59.2808Z" fill="black"/>
</svg>
