<svg width="483" height="128" viewBox="0 0 483 128" fill="none" xmlns="http://www.w3.org/2000/svg">
<rect width="7.61651" height="127.957" rx="3.80826" fill="#E58411"/>
<path d="M51.0767 15.0744C51.5189 15.0744 51.8761 15.2445 52.1483 15.5847C52.4545 15.8909 52.6076 16.2311 52.6076 16.6054C52.6076 16.7755 52.5736 16.9456 52.5055 17.1157C52.4715 17.2517 52.4034 17.4048 52.3014 17.5749L40.3092 34.0578L40.9216 32.0676V49.4691C40.9216 49.8773 40.7685 50.2345 40.4623 50.5407C40.1561 50.8469 39.7819 51 39.3396 51C38.8973 51 38.5231 50.8469 38.2169 50.5407C37.9448 50.2345 37.8087 49.8773 37.8087 49.4691V32.4249L38.0638 33.6496L26.3778 17.677C26.2417 17.5069 26.1397 17.3368 26.0716 17.1667C26.0036 16.9626 25.9696 16.7755 25.9696 16.6054C25.9696 16.1631 26.1397 15.8059 26.4799 15.5337C26.8541 15.2275 27.2283 15.0744 27.6026 15.0744C28.1129 15.0744 28.5381 15.3126 28.8783 15.7889L39.8499 30.7408L39.0845 30.6388L49.7499 15.7889C50.0901 15.3126 50.5323 15.0744 51.0767 15.0744ZM79.7343 37.9362C79.7343 40.5217 79.173 42.8521 78.0503 44.9274C76.9277 46.9686 75.3967 48.5846 73.4576 49.7753C71.5184 50.932 69.3071 51.5103 66.8236 51.5103C64.4081 51.5103 62.2138 50.932 60.2406 49.7753C58.3015 48.5846 56.7535 46.9686 55.5968 44.9274C54.4742 42.8521 53.9128 40.5217 53.9128 37.9362C53.9128 35.3166 54.4742 32.9862 55.5968 30.945C56.7535 28.9037 58.3015 27.2878 60.2406 26.0971C62.2138 24.9063 64.4081 24.311 66.8236 24.311C69.3071 24.311 71.5184 24.9063 73.4576 26.0971C75.3967 27.2878 76.9277 28.9037 78.0503 30.945C79.173 32.9862 79.7343 35.3166 79.7343 37.9362ZM76.6725 37.9362C76.6725 35.8609 76.2472 34.0238 75.3967 32.4249C74.5462 30.7919 73.3725 29.5161 71.8756 28.5976C70.4127 27.645 68.7287 27.1687 66.8236 27.1687C64.9865 27.1687 63.3195 27.645 61.8226 28.5976C60.3257 29.5161 59.135 30.7919 58.2504 32.4249C57.3999 34.0238 56.9747 35.8609 56.9747 37.9362C56.9747 40.0114 57.3999 41.8485 58.2504 43.4475C59.135 45.0464 60.3257 46.3222 61.8226 47.2748C63.3195 48.1933 64.9865 48.6526 66.8236 48.6526C68.7287 48.6526 70.4127 48.1933 71.8756 47.2748C73.3725 46.3222 74.5462 45.0464 75.3967 43.4475C76.2472 41.8485 76.6725 40.0114 76.6725 37.9362ZM105.735 25.0764C106.178 25.0764 106.535 25.2295 106.807 25.5357C107.113 25.8419 107.266 26.1991 107.266 26.6074V40.998C107.266 44.366 106.314 46.9346 104.408 48.7036C102.503 50.4727 99.9348 51.3572 96.7028 51.3572C93.5049 51.3572 90.9534 50.4727 89.0482 48.7036C87.1771 46.9346 86.2415 44.366 86.2415 40.998V26.6074C86.2415 26.1991 86.3776 25.8419 86.6498 25.5357C86.956 25.2295 87.3302 25.0764 87.7725 25.0764C88.2147 25.0764 88.5719 25.2295 88.8441 25.5357C89.1503 25.8419 89.3034 26.1991 89.3034 26.6074V40.998C89.3034 43.4475 89.9498 45.3186 91.2425 46.6114C92.5693 47.8701 94.3894 48.4995 96.7028 48.4995C99.0502 48.4995 100.887 47.8701 102.214 46.6114C103.541 45.3186 104.204 43.4475 104.204 40.998V26.6074C104.204 26.1991 104.34 25.8419 104.613 25.5357C104.885 25.2295 105.259 25.0764 105.735 25.0764ZM118.867 18.5955C118.867 19.5141 118.595 20.4156 118.051 21.3002C117.506 22.1507 116.843 22.8651 116.061 23.4435C115.312 23.9878 114.547 24.2599 113.764 24.2599C113.492 24.2599 113.237 24.1749 112.999 24.0048C112.761 23.8347 112.642 23.5285 112.642 23.0862C112.642 22.61 112.795 22.3378 113.101 22.2698C113.407 22.2017 113.815 22.0486 114.326 21.8105C114.87 21.5043 115.295 21.1471 115.601 20.7388C115.907 20.3306 116.061 19.8543 116.061 19.31C116.061 18.8677 115.924 18.5275 115.652 18.2894C115.414 18.0512 115.125 17.9322 114.785 17.9322C114.547 17.9322 114.309 17.9832 114.07 18.0852C113.832 18.1533 113.628 18.2553 113.458 18.3914C113.254 18.2213 113.084 18.0342 112.948 17.8301C112.846 17.5919 112.795 17.3198 112.795 17.0136C112.863 16.4353 113.186 15.942 113.764 15.5337C114.343 15.1255 114.989 14.9213 115.703 14.9213C116.622 14.9213 117.37 15.2956 117.949 16.044C118.561 16.7584 118.867 17.609 118.867 18.5955ZM128.58 49.4691C128.58 49.8773 128.427 50.2345 128.121 50.5407C127.815 50.8469 127.458 51 127.049 51C126.607 51 126.233 50.8469 125.927 50.5407C125.654 50.2345 125.518 49.8773 125.518 49.4691V14.7683C125.518 14.36 125.671 14.0028 125.978 13.6966C126.284 13.3904 126.641 13.2373 127.049 13.2373C127.492 13.2373 127.849 13.3904 128.121 13.6966C128.427 14.0028 128.58 14.36 128.58 14.7683V49.4691ZM140.341 49.4691C140.341 49.8773 140.188 50.2345 139.882 50.5407C139.576 50.8469 139.219 51 138.81 51C138.368 51 137.994 50.8469 137.688 50.5407C137.415 50.2345 137.279 49.8773 137.279 49.4691V14.7683C137.279 14.36 137.432 14.0028 137.739 13.6966C138.045 13.3904 138.402 13.2373 138.81 13.2373C139.253 13.2373 139.61 13.3904 139.882 13.6966C140.188 14.0028 140.341 14.36 140.341 14.7683V49.4691ZM175.088 24.311C177.402 24.311 179.443 24.8893 181.212 26.046C183.015 27.2027 184.444 28.8017 185.498 30.8429C186.553 32.8501 187.08 35.1805 187.08 37.8341C187.08 40.4196 186.553 42.75 185.498 44.8253C184.444 46.9005 183.015 48.5335 181.212 49.7242C179.409 50.9149 177.385 51.5103 175.139 51.5103C173.949 51.5103 172.809 51.3232 171.72 50.949C170.666 50.5747 169.696 50.0814 168.811 49.4691C167.927 48.8227 167.144 48.0742 166.464 47.2237C165.784 46.3732 165.239 45.4547 164.831 44.4681L165.75 43.8047V49.5711C165.75 50.0134 165.597 50.3876 165.29 50.6938C165.018 50.966 164.661 51.1021 164.219 51.1021C163.776 51.1021 163.402 50.966 163.096 50.6938C162.824 50.3876 162.688 50.0134 162.688 49.5711V14.8193C162.688 14.377 162.824 14.0198 163.096 13.7476C163.368 13.4415 163.742 13.2884 164.219 13.2884C164.661 13.2884 165.018 13.4415 165.29 13.7476C165.597 14.0198 165.75 14.377 165.75 14.8193V31.9145L165.035 31.5063C165.375 30.4517 165.869 29.4991 166.515 28.6486C167.196 27.7641 167.978 26.9986 168.863 26.3522C169.747 25.7058 170.717 25.2125 171.771 24.8723C172.826 24.4981 173.932 24.311 175.088 24.311ZM174.833 27.1687C172.996 27.1687 171.38 27.628 169.985 28.5465C168.59 29.4651 167.485 30.7238 166.668 32.3228C165.886 33.9217 165.494 35.7589 165.494 37.8341C165.494 39.8753 165.886 41.7294 166.668 43.3964C167.485 45.0294 168.59 46.3222 169.985 47.2748C171.38 48.1933 172.996 48.6526 174.833 48.6526C176.636 48.6526 178.218 48.1763 179.579 47.2237C180.974 46.2712 182.079 44.9784 182.896 43.3454C183.712 41.6784 184.121 39.8413 184.121 37.8341C184.121 35.7589 183.712 33.9217 182.896 32.3228C182.079 30.7238 180.974 29.4651 179.579 28.5465C178.218 27.628 176.636 27.1687 174.833 27.1687ZM205.423 51.5103C202.804 51.5103 200.49 50.949 198.483 49.8263C196.476 48.7036 194.911 47.1387 193.788 45.1315C192.666 43.1243 192.104 40.7769 192.104 38.0892C192.104 35.1975 192.666 32.731 193.788 30.6898C194.945 28.6486 196.425 27.0836 198.228 25.995C200.065 24.8723 202.004 24.311 204.045 24.311C205.542 24.311 206.988 24.5831 208.383 25.1275C209.812 25.6378 211.071 26.4202 212.159 27.4749C213.282 28.4955 214.166 29.7542 214.813 31.2511C215.493 32.748 215.867 34.4831 215.935 36.4563C215.901 36.8645 215.731 37.2217 215.425 37.5279C215.119 37.8001 214.762 37.9362 214.354 37.9362H193.89L193.278 35.1805H213.384L212.721 35.7929V34.7723C212.584 33.1733 212.074 31.8125 211.19 30.6898C210.305 29.5671 209.233 28.7166 207.975 28.1383C206.716 27.5599 205.406 27.2708 204.045 27.2708C203.025 27.2708 201.97 27.4749 200.881 27.8831C199.827 28.2914 198.857 28.9378 197.973 29.8223C197.122 30.6728 196.425 31.7785 195.88 33.1393C195.336 34.4661 195.064 36.048 195.064 37.8851C195.064 39.8923 195.472 41.7124 196.289 43.3454C197.105 44.9784 198.279 46.2712 199.81 47.2237C201.375 48.1763 203.229 48.6526 205.372 48.6526C206.563 48.6526 207.634 48.4825 208.587 48.1423C209.54 47.8021 210.373 47.3598 211.088 46.8155C211.802 46.2371 212.397 45.6418 212.874 45.0294C213.248 44.7232 213.622 44.5701 213.996 44.5701C214.337 44.5701 214.626 44.7062 214.864 44.9784C215.136 45.2505 215.272 45.5567 215.272 45.8969C215.272 46.3052 215.102 46.6624 214.762 46.9686C213.741 48.1933 212.414 49.265 210.781 50.1835C209.148 51.068 207.362 51.5103 205.423 51.5103ZM248.843 24.311C251.157 24.311 253.198 24.8893 254.967 26.046C256.77 27.2027 258.199 28.8017 259.254 30.8429C260.308 32.8501 260.836 35.1805 260.836 37.8341C260.836 40.4196 260.308 42.75 259.254 44.8253C258.199 46.9005 256.77 48.5335 254.967 49.7242C253.164 50.9149 251.14 51.5103 248.894 51.5103C247.704 51.5103 246.564 51.3232 245.475 50.949C244.421 50.5747 243.451 50.0814 242.567 49.4691C241.682 48.8227 240.9 48.0742 240.219 47.2237C239.539 46.3732 238.995 45.4547 238.586 44.4681L239.505 43.8047V49.5711C239.505 50.0134 239.352 50.3876 239.046 50.6938C238.773 50.966 238.416 51.1021 237.974 51.1021C237.532 51.1021 237.157 50.966 236.851 50.6938C236.579 50.3876 236.443 50.0134 236.443 49.5711V14.8193C236.443 14.377 236.579 14.0198 236.851 13.7476C237.123 13.4415 237.498 13.2884 237.974 13.2884C238.416 13.2884 238.773 13.4415 239.046 13.7476C239.352 14.0198 239.505 14.377 239.505 14.8193V31.9145L238.79 31.5063C239.131 30.4517 239.624 29.4991 240.27 28.6486C240.951 27.7641 241.733 26.9986 242.618 26.3522C243.502 25.7058 244.472 25.2125 245.526 24.8723C246.581 24.4981 247.687 24.311 248.843 24.311ZM248.588 27.1687C246.751 27.1687 245.135 27.628 243.74 28.5465C242.346 29.4651 241.24 30.7238 240.423 32.3228C239.641 33.9217 239.25 35.7589 239.25 37.8341C239.25 39.8753 239.641 41.7294 240.423 43.3964C241.24 45.0294 242.346 46.3222 243.74 47.2748C245.135 48.1933 246.751 48.6526 248.588 48.6526C250.391 48.6526 251.973 48.1763 253.334 47.2237C254.729 46.2712 255.835 44.9784 256.651 43.3454C257.468 41.6784 257.876 39.8413 257.876 37.8341C257.876 35.7589 257.468 33.9217 256.651 32.3228C255.835 30.7238 254.729 29.4651 253.334 28.5465C251.973 27.628 250.391 27.1687 248.588 27.1687ZM286.884 25.0764C287.326 25.0764 287.683 25.2295 287.956 25.5357C288.262 25.8419 288.415 26.1991 288.415 26.6074V40.998C288.415 44.366 287.462 46.9346 285.557 48.7036C283.652 50.4727 281.084 51.3572 277.852 51.3572C274.654 51.3572 272.102 50.4727 270.197 48.7036C268.326 46.9346 267.39 44.366 267.39 40.998V26.6074C267.39 26.1991 267.526 25.8419 267.799 25.5357C268.105 25.2295 268.479 25.0764 268.921 25.0764C269.363 25.0764 269.721 25.2295 269.993 25.5357C270.299 25.8419 270.452 26.1991 270.452 26.6074V40.998C270.452 43.4475 271.099 45.3186 272.391 46.6114C273.718 47.8701 275.538 48.4995 277.852 48.4995C280.199 48.4995 282.036 47.8701 283.363 46.6114C284.69 45.3186 285.353 43.4475 285.353 40.998V26.6074C285.353 26.1991 285.489 25.8419 285.761 25.5357C286.033 25.2295 286.408 25.0764 286.884 25.0764ZM315.887 24.4641C316.329 24.4641 316.686 24.6172 316.958 24.9233C317.264 25.2295 317.417 25.5867 317.417 25.995V48.4995C317.417 51.2552 316.873 53.5685 315.784 55.4397C314.696 57.3448 313.233 58.7737 311.396 59.7262C309.559 60.7128 307.466 61.2061 305.119 61.2061C303.656 61.2061 302.295 61.036 301.037 60.6958C299.812 60.3896 298.808 59.9814 298.026 59.4711C297.618 59.2329 297.311 58.9438 297.107 58.6036C296.903 58.2634 296.886 57.9061 297.056 57.5319C297.226 57.0556 297.481 56.7324 297.822 56.5623C298.196 56.4263 298.57 56.4433 298.944 56.6134C299.523 56.9196 300.356 57.2938 301.445 57.736C302.534 58.1783 303.775 58.3994 305.17 58.3994C307.041 58.3994 308.657 58.0082 310.018 57.2257C311.413 56.4433 312.484 55.3036 313.233 53.8067C313.981 52.3438 314.356 50.5918 314.356 48.5505V44.8763L314.713 46.1011C314.203 47.1557 313.471 48.0913 312.519 48.9077C311.6 49.7242 310.528 50.3706 309.304 50.8469C308.113 51.2892 306.837 51.5103 305.476 51.5103C303.435 51.5103 301.734 51.1021 300.373 50.2856C299.046 49.4351 298.06 48.2784 297.413 46.8155C296.767 45.3526 296.444 43.6346 296.444 41.6614V25.995C296.444 25.5867 296.58 25.2295 296.852 24.9233C297.124 24.6172 297.498 24.4641 297.975 24.4641C298.417 24.4641 298.774 24.6172 299.046 24.9233C299.353 25.2295 299.506 25.5867 299.506 25.995V41.2021C299.506 43.5835 300.016 45.4207 301.037 46.7134C302.091 48.0062 303.792 48.6526 306.14 48.6526C307.603 48.6526 308.946 48.3124 310.171 47.632C311.396 46.9175 312.399 45.999 313.182 44.8763C313.964 43.7196 314.356 42.4949 314.356 41.2021V25.995C314.356 25.5867 314.492 25.2295 314.764 24.9233C315.07 24.6172 315.444 24.4641 315.887 24.4641ZM328.407 49.4691C328.407 49.8773 328.254 50.2345 327.948 50.5407C327.642 50.8469 327.285 51 326.876 51C326.434 51 326.06 50.8469 325.754 50.5407C325.482 50.2345 325.346 49.8773 325.346 49.4691V25.995C325.346 25.5867 325.482 25.2295 325.754 24.9233C326.06 24.6172 326.434 24.4641 326.876 24.4641C327.319 24.4641 327.676 24.6172 327.948 24.9233C328.254 25.2295 328.407 25.5867 328.407 25.995V49.4691ZM326.876 21.045C326.162 21.045 325.618 20.8919 325.243 20.5857C324.903 20.2455 324.733 19.7693 324.733 19.1569V18.6466C324.733 18.0342 324.92 17.5749 325.295 17.2688C325.703 16.9286 326.247 16.7584 326.928 16.7584C327.574 16.7584 328.067 16.9286 328.407 17.2688C328.782 17.5749 328.969 18.0342 328.969 18.6466V19.1569C328.969 19.7693 328.782 20.2455 328.407 20.5857C328.067 20.8919 327.557 21.045 326.876 21.045ZM348.66 24.311C350.905 24.311 352.691 24.7703 354.018 25.6888C355.379 26.5733 356.348 27.7981 356.927 29.363C357.539 30.8939 357.845 32.595 357.845 34.4661V49.4691C357.845 49.8773 357.692 50.2345 357.386 50.5407C357.08 50.8469 356.723 51 356.314 51C355.838 51 355.464 50.8469 355.192 50.5407C354.92 50.2345 354.783 49.8773 354.783 49.4691V34.6192C354.783 33.2584 354.562 32.0166 354.12 30.8939C353.678 29.7713 352.946 28.8697 351.926 28.1893C350.939 27.5089 349.629 27.1687 347.996 27.1687C346.533 27.1687 345.139 27.5089 343.812 28.1893C342.519 28.8697 341.464 29.7713 340.648 30.8939C339.831 32.0166 339.423 33.2584 339.423 34.6192V49.4691C339.423 49.8773 339.27 50.2345 338.964 50.5407C338.658 50.8469 338.301 51 337.892 51C337.416 51 337.042 50.8469 336.77 50.5407C336.497 50.2345 336.361 49.8773 336.361 49.4691V26.6074C336.361 26.1991 336.497 25.8419 336.77 25.5357C337.076 25.2295 337.45 25.0764 337.892 25.0764C338.335 25.0764 338.692 25.2295 338.964 25.5357C339.27 25.8419 339.423 26.1991 339.423 26.6074V30.8939L338.25 32.731C338.318 31.6424 338.658 30.6048 339.27 29.6182C339.917 28.5976 340.733 27.696 341.72 26.9135C342.706 26.0971 343.795 25.4677 344.986 25.0254C346.21 24.5491 347.435 24.311 348.66 24.311ZM376.733 24.311C378.264 24.311 379.676 24.5831 380.969 25.1275C382.261 25.6378 383.384 26.3182 384.337 27.1687C385.323 27.9852 386.089 28.8697 386.633 29.8223C387.177 30.7408 387.449 31.6254 387.449 32.4759L386.582 31.2511V26.5053C386.582 26.063 386.718 25.6888 386.99 25.3826C387.296 25.0764 387.671 24.9233 388.113 24.9233C388.589 24.9233 388.963 25.0764 389.235 25.3826C389.508 25.6888 389.644 26.063 389.644 26.5053V48.6016C389.644 51.3232 389.082 53.6196 387.96 55.4907C386.837 57.3618 385.306 58.7737 383.367 59.7262C381.462 60.7128 379.285 61.2061 376.835 61.2061C375.644 61.2061 374.386 61.053 373.059 60.7469C371.766 60.4407 370.643 60.0494 369.691 59.5731C368.772 59.0969 368.262 58.6036 368.16 58.0933C367.888 57.7871 367.752 57.4809 367.752 57.1747C367.786 56.9025 367.939 56.6644 368.211 56.4603C368.551 56.2221 368.908 56.1881 369.283 56.3582C369.657 56.5623 370.218 56.8175 370.967 57.1237C371.307 57.2257 371.766 57.3788 372.344 57.583C372.923 57.7871 373.603 57.9572 374.386 58.0933C375.202 58.2634 376.053 58.3484 376.937 58.3484C379.999 58.3484 382.363 57.4639 384.03 55.6948C385.731 53.9598 386.582 51.6634 386.582 48.8057V43.9067L387.143 44.0598C386.837 45.2846 386.327 46.3562 385.612 47.2748C384.932 48.1933 384.115 48.9758 383.163 49.6222C382.21 50.2345 381.173 50.6938 380.05 51C378.961 51.3402 377.873 51.5103 376.784 51.5103C374.437 51.5103 372.327 50.9149 370.456 49.7242C368.585 48.5335 367.088 46.9175 365.966 44.8763C364.877 42.8351 364.333 40.5047 364.333 37.8851C364.333 35.2996 364.877 32.9862 365.966 30.945C367.088 28.8697 368.568 27.2537 370.405 26.0971C372.276 24.9063 374.386 24.311 376.733 24.311ZM377.09 27.1687C375.219 27.1687 373.535 27.645 372.038 28.5976C370.575 29.5161 369.419 30.7919 368.568 32.4249C367.752 34.0238 367.343 35.8439 367.343 37.8851C367.343 39.9264 367.752 41.7635 368.568 43.3964C369.419 45.0294 370.575 46.3222 372.038 47.2748C373.535 48.1933 375.219 48.6526 377.09 48.6526C378.961 48.6526 380.628 48.1933 382.091 47.2748C383.554 46.3562 384.711 45.0975 385.561 43.4985C386.412 41.8655 386.837 39.9944 386.837 37.8851C386.837 35.7759 386.412 33.9217 385.561 32.3228C384.711 30.6898 383.554 29.4311 382.091 28.5465C380.628 27.628 378.961 27.1687 377.09 27.1687ZM409.977 25.0254H421.868C422.276 25.0254 422.616 25.1785 422.888 25.4847C423.16 25.7568 423.296 26.0971 423.296 26.5053C423.296 26.8795 423.16 27.2027 422.888 27.4749C422.616 27.747 422.276 27.8831 421.868 27.8831H409.977C409.569 27.8831 409.212 27.747 408.906 27.4749C408.634 27.1687 408.498 26.8285 408.498 26.4543C408.498 26.046 408.634 25.7058 408.906 25.4337C409.212 25.1615 409.569 25.0254 409.977 25.0254ZM415.234 17.8301C415.676 17.8301 416.033 17.9832 416.305 18.2894C416.611 18.5955 416.765 18.9528 416.765 19.361V44.9784C416.765 45.931 416.884 46.6454 417.122 47.1217C417.394 47.598 417.734 47.9212 418.142 48.0913C418.551 48.2273 418.959 48.2954 419.367 48.2954C419.639 48.2954 419.877 48.2614 420.082 48.1933C420.32 48.0913 420.575 48.0402 420.847 48.0402C421.153 48.0402 421.408 48.1593 421.612 48.3974C421.851 48.6356 421.97 48.9418 421.97 49.316C421.97 49.7923 421.697 50.2005 421.153 50.5407C420.609 50.8469 419.962 51 419.214 51C418.908 51 418.449 50.983 417.836 50.949C417.224 50.8809 416.594 50.6938 415.948 50.3876C415.302 50.0474 414.757 49.4691 414.315 48.6526C413.907 47.8361 413.703 46.6624 413.703 45.1315V19.361C413.703 18.9528 413.839 18.5955 414.111 18.2894C414.417 17.9832 414.791 17.8301 415.234 17.8301ZM440.844 24.7192C442.987 24.7192 444.723 25.1785 446.049 26.0971C447.376 27.0156 448.346 28.2573 448.958 29.8223C449.604 31.3872 449.928 33.1223 449.928 35.0274V49.4691C449.928 49.8773 449.775 50.2345 449.468 50.5407C449.162 50.8469 448.805 51 448.397 51C447.92 51 447.546 50.8469 447.274 50.5407C447.002 50.2345 446.866 49.8773 446.866 49.4691V35.0274C446.866 33.6326 446.645 32.3738 446.202 31.2511C445.794 30.1285 445.114 29.2439 444.161 28.5976C443.209 27.9171 441.933 27.5769 440.334 27.5769C438.905 27.5769 437.544 27.9171 436.251 28.5976C434.993 29.2439 433.972 30.1285 433.19 31.2511C432.407 32.3738 432.016 33.6326 432.016 35.0274V49.4691C432.016 49.8773 431.863 50.2345 431.557 50.5407C431.25 50.8469 430.893 51 430.485 51C430.009 51 429.634 50.8469 429.362 50.5407C429.09 50.2345 428.954 49.8773 428.954 49.4691V14.7683C428.954 14.36 429.09 14.0028 429.362 13.6966C429.668 13.3904 430.043 13.2373 430.485 13.2373C430.927 13.2373 431.284 13.3904 431.557 13.6966C431.863 14.0028 432.016 14.36 432.016 14.7683V31.3022L430.842 33.0882C430.91 32.0336 431.233 31.013 431.812 30.0264C432.424 29.0058 433.207 28.1043 434.159 27.3218C435.112 26.5053 436.166 25.8759 437.323 25.4337C438.48 24.9574 439.653 24.7192 440.844 24.7192ZM469.746 51.5103C467.126 51.5103 464.813 50.949 462.806 49.8263C460.799 48.7036 459.234 47.1387 458.111 45.1315C456.988 43.1243 456.427 40.7769 456.427 38.0892C456.427 35.1975 456.988 32.731 458.111 30.6898C459.268 28.6486 460.747 27.0836 462.551 25.995C464.388 24.8723 466.327 24.311 468.368 24.311C469.865 24.311 471.311 24.5831 472.706 25.1275C474.135 25.6378 475.393 26.4202 476.482 27.4749C477.605 28.4955 478.489 29.7542 479.136 31.2511C479.816 32.748 480.19 34.4831 480.258 36.4563C480.224 36.8645 480.054 37.2217 479.748 37.5279C479.442 37.8001 479.084 37.9362 478.676 37.9362H458.213L457.601 35.1805H477.707L477.043 35.7929V34.7723C476.907 33.1733 476.397 31.8125 475.512 30.6898C474.628 29.5671 473.556 28.7166 472.297 28.1383C471.039 27.5599 469.729 27.2708 468.368 27.2708C467.347 27.2708 466.293 27.4749 465.204 27.8831C464.15 28.2914 463.18 28.9378 462.295 29.8223C461.445 30.6728 460.747 31.7785 460.203 33.1393C459.659 34.4661 459.387 36.048 459.387 37.8851C459.387 39.8923 459.795 41.7124 460.611 43.3454C461.428 44.9784 462.602 46.2712 464.133 47.2237C465.697 48.1763 467.552 48.6526 469.695 48.6526C470.886 48.6526 471.957 48.4825 472.91 48.1423C473.862 47.8021 474.696 47.3598 475.41 46.8155C476.125 46.2371 476.72 45.6418 477.196 45.0294C477.571 44.7232 477.945 44.5701 478.319 44.5701C478.659 44.5701 478.948 44.7062 479.187 44.9784C479.459 45.2505 479.595 45.5567 479.595 45.8969C479.595 46.3052 479.425 46.6624 479.084 46.9686C478.064 48.1933 476.737 49.265 475.104 50.1835C473.471 51.068 471.685 51.5103 469.746 51.5103ZM55.3856 88.311C57.6989 88.311 59.7402 88.8893 61.5092 90.046C63.3123 91.2027 64.7412 92.8017 65.7958 94.8429C66.8504 96.8501 67.3777 99.1805 67.3777 101.834C67.3777 104.42 66.8504 106.75 65.7958 108.825C64.7412 110.901 63.3123 112.534 61.5092 113.724C59.7061 114.915 57.6819 115.51 55.4366 115.51C54.2459 115.51 53.1062 115.323 52.0175 114.949C50.9629 114.575 49.9933 114.081 49.1088 113.469C48.2243 112.823 47.4418 112.074 46.7614 111.224C46.081 110.373 45.5366 109.455 45.1284 108.468L46.0469 107.805V113.571C46.0469 114.013 45.8939 114.388 45.5877 114.694C45.3155 114.966 44.9583 115.102 44.516 115.102C44.0738 115.102 43.6995 114.966 43.3934 114.694C43.1212 114.388 42.9851 114.013 42.9851 113.571V78.8193C42.9851 78.377 43.1212 78.0198 43.3934 77.7476C43.6655 77.4415 44.0397 77.2884 44.516 77.2884C44.9583 77.2884 45.3155 77.4415 45.5877 77.7476C45.8939 78.0198 46.0469 78.377 46.0469 78.8193V95.9145L45.3325 95.5063C45.6727 94.4517 46.166 93.4991 46.8124 92.6486C47.4928 91.7641 48.2753 90.9986 49.1598 90.3522C50.0443 89.7058 51.0139 89.2125 52.0686 88.8723C53.1232 88.4981 54.2289 88.311 55.3856 88.311ZM55.1304 91.1687C53.2933 91.1687 51.6773 91.628 50.2825 92.5465C48.8877 93.4651 47.782 94.7238 46.9655 96.3228C46.183 97.9217 45.7918 99.7589 45.7918 101.834C45.7918 103.875 46.183 105.729 46.9655 107.396C47.782 109.029 48.8877 110.322 50.2825 111.275C51.6773 112.193 53.2933 112.653 55.1304 112.653C56.9335 112.653 58.5154 112.176 59.8762 111.224C61.2711 110.271 62.3767 108.978 63.1932 107.345C64.0097 105.678 64.418 103.841 64.418 101.834C64.418 99.7589 64.0097 97.9217 63.1932 96.3228C62.3767 94.7238 61.2711 93.4651 59.8762 92.5465C58.5154 91.628 56.9335 91.1687 55.1304 91.1687ZM85.7205 115.51C83.1009 115.51 80.7875 114.949 78.7803 113.826C76.7731 112.704 75.2082 111.139 74.0855 109.131C72.9628 107.124 72.4015 104.777 72.4015 102.089C72.4015 99.1975 72.9628 96.731 74.0855 94.6898C75.2422 92.6486 76.7221 91.0836 78.5251 89.995C80.3622 88.8723 82.3014 88.311 84.3426 88.311C85.8395 88.311 87.2854 88.5831 88.6802 89.1275C90.1091 89.6378 91.3679 90.4202 92.4565 91.4749C93.5792 92.4955 94.4637 93.7542 95.1101 95.2511C95.7905 96.748 96.1647 98.4831 96.2328 100.456C96.1988 100.865 96.0287 101.222 95.7225 101.528C95.4163 101.8 95.0591 101.936 94.6508 101.936H74.1875L73.5752 99.1805H93.6812L93.0178 99.7929V98.7723C92.8818 97.1733 92.3715 95.8125 91.4869 94.6898C90.6024 93.5671 89.5308 92.7166 88.272 92.1383C87.0132 91.5599 85.7035 91.2708 84.3426 91.2708C83.322 91.2708 82.2674 91.4749 81.1787 91.8831C80.1241 92.2914 79.1545 92.9378 78.27 93.8223C77.4195 94.6728 76.7221 95.7785 76.1777 97.1393C75.6334 98.4661 75.3612 100.048 75.3612 101.885C75.3612 103.892 75.7695 105.712 76.586 107.345C77.4025 108.978 78.5762 110.271 80.1071 111.224C81.672 112.176 83.5261 112.653 85.6694 112.653C86.8601 112.653 87.9318 112.482 88.8844 112.142C89.8369 111.802 90.6704 111.36 91.3849 110.815C92.0993 110.237 92.6947 109.642 93.1709 109.029C93.5452 108.723 93.9194 108.57 94.2936 108.57C94.6338 108.57 94.923 108.706 95.1611 108.978C95.4333 109.251 95.5694 109.557 95.5694 109.897C95.5694 110.305 95.3993 110.662 95.0591 110.969C94.0385 112.193 92.7117 113.265 91.0787 114.184C89.4457 115.068 87.6596 115.51 85.7205 115.51ZM101.307 110.867C101.035 110.458 100.898 110.067 100.898 109.693C100.933 109.285 101.154 108.961 101.562 108.723C101.834 108.485 102.14 108.383 102.48 108.417C102.855 108.451 103.195 108.621 103.501 108.927C104.42 110.118 105.525 111.088 106.818 111.836C108.145 112.551 109.71 112.908 111.513 112.908C112.465 112.908 113.401 112.755 114.32 112.448C115.272 112.108 116.055 111.615 116.667 110.969C117.279 110.288 117.586 109.438 117.586 108.417C117.586 107.362 117.279 106.512 116.667 105.866C116.055 105.219 115.255 104.709 114.269 104.335C113.316 103.96 112.295 103.637 111.207 103.365C110.05 103.059 108.927 102.719 107.839 102.344C106.75 101.936 105.78 101.443 104.93 100.865C104.113 100.252 103.45 99.5207 102.94 98.6702C102.429 97.8197 102.174 96.7821 102.174 95.5573C102.174 94.1285 102.565 92.8697 103.348 91.7811C104.13 90.6924 105.185 89.8419 106.512 89.2295C107.873 88.6172 109.404 88.311 111.105 88.311C111.955 88.311 112.874 88.4301 113.86 88.6682C114.847 88.8723 115.816 89.2295 116.769 89.7398C117.722 90.2501 118.572 90.9476 119.321 91.8321C119.627 92.1383 119.78 92.4955 119.78 92.9037C119.78 93.278 119.61 93.6182 119.27 93.9243C118.997 94.1285 118.674 94.2305 118.3 94.2305C117.96 94.2305 117.671 94.0945 117.432 93.8223C116.616 92.9037 115.646 92.2063 114.524 91.73C113.401 91.2537 112.193 91.0156 110.9 91.0156C109.914 91.0156 108.978 91.1857 108.094 91.5259C107.243 91.8321 106.529 92.3084 105.951 92.9548C105.372 93.6012 105.083 94.4517 105.083 95.5063C105.151 96.4929 105.491 97.2924 106.104 97.9047C106.75 98.5171 107.584 99.0274 108.604 99.4357C109.659 99.8439 110.832 100.218 112.125 100.558C113.214 100.83 114.252 101.154 115.238 101.528C116.259 101.902 117.143 102.378 117.892 102.957C118.674 103.501 119.287 104.199 119.729 105.049C120.205 105.9 120.443 106.971 120.443 108.264C120.443 109.761 120.018 111.054 119.167 112.142C118.351 113.231 117.245 114.064 115.85 114.643C114.456 115.221 112.908 115.51 111.207 115.51C109.37 115.51 107.584 115.153 105.848 114.439C104.147 113.724 102.634 112.534 101.307 110.867ZM125.023 89.0254H136.913C137.322 89.0254 137.662 89.1785 137.934 89.4847C138.206 89.7568 138.342 90.0971 138.342 90.5053C138.342 90.8795 138.206 91.2027 137.934 91.4749C137.662 91.747 137.322 91.8831 136.913 91.8831H125.023C124.615 91.8831 124.258 91.747 123.952 91.4749C123.679 91.1687 123.543 90.8285 123.543 90.4543C123.543 90.046 123.679 89.7058 123.952 89.4337C124.258 89.1615 124.615 89.0254 125.023 89.0254ZM130.279 81.8301C130.722 81.8301 131.079 81.9832 131.351 82.2894C131.657 82.5955 131.81 82.9528 131.81 83.361V108.978C131.81 109.931 131.929 110.645 132.168 111.122C132.44 111.598 132.78 111.921 133.188 112.091C133.596 112.227 134.005 112.295 134.413 112.295C134.685 112.295 134.923 112.261 135.127 112.193C135.365 112.091 135.621 112.04 135.893 112.04C136.199 112.04 136.454 112.159 136.658 112.397C136.896 112.636 137.015 112.942 137.015 113.316C137.015 113.792 136.743 114.201 136.199 114.541C135.655 114.847 135.008 115 134.26 115C133.954 115 133.494 114.983 132.882 114.949C132.27 114.881 131.64 114.694 130.994 114.388C130.347 114.047 129.803 113.469 129.361 112.653C128.953 111.836 128.748 110.662 128.748 109.131V83.361C128.748 82.9528 128.885 82.5955 129.157 82.2894C129.463 81.9832 129.837 81.8301 130.279 81.8301ZM170.354 88.7192C172.667 88.7192 174.709 89.2976 176.478 90.4543C178.281 91.5769 179.71 93.1419 180.764 95.1491C181.819 97.1223 182.346 99.4016 182.346 101.987C182.346 104.573 181.819 106.869 180.764 108.876C179.71 110.884 178.281 112.465 176.478 113.622C174.675 114.779 172.65 115.357 170.405 115.357C169.214 115.357 168.075 115.187 166.986 114.847C165.931 114.473 164.962 113.979 164.077 113.367C163.193 112.755 162.41 112.04 161.73 111.224C161.049 110.373 160.505 109.455 160.097 108.468L161.015 107.805V123.675C161.015 124.083 160.862 124.441 160.556 124.747C160.284 125.053 159.927 125.206 159.484 125.206C159.042 125.206 158.668 125.053 158.362 124.747C158.09 124.441 157.954 124.083 157.954 123.675V90.4032C157.954 89.961 158.09 89.5867 158.362 89.2806C158.634 88.9744 159.008 88.8213 159.484 88.8213C159.927 88.8213 160.284 88.9744 160.556 89.2806C160.862 89.5867 161.015 89.961 161.015 90.4032V95.9145L160.301 95.5063C160.641 94.4517 161.134 93.5161 161.781 92.6996C162.461 91.8491 163.244 91.1347 164.128 90.5563C165.013 89.944 165.982 89.4847 167.037 89.1785C168.092 88.8723 169.197 88.7192 170.354 88.7192ZM170.099 91.5769C168.262 91.5769 166.646 92.0362 165.251 92.9548C163.856 93.8393 162.75 95.064 161.934 96.629C161.151 98.1599 160.76 99.946 160.76 101.987C160.76 103.994 161.151 105.797 161.934 107.396C162.75 108.995 163.856 110.254 165.251 111.173C166.646 112.057 168.262 112.499 170.099 112.499C171.902 112.499 173.484 112.057 174.845 111.173C176.24 110.254 177.345 108.995 178.162 107.396C178.978 105.797 179.386 103.994 179.386 101.987C179.386 99.98 178.978 98.1939 178.162 96.629C177.345 95.064 176.24 93.8393 174.845 92.9548C173.484 92.0362 171.902 91.5769 170.099 91.5769ZM190.432 115C189.955 115 189.581 114.847 189.309 114.541C189.037 114.235 188.901 113.877 188.901 113.469V90.6074C188.901 90.1991 189.037 89.8419 189.309 89.5357C189.615 89.2295 189.989 89.0764 190.432 89.0764C190.874 89.0764 191.231 89.2295 191.503 89.5357C191.81 89.8419 191.963 90.1991 191.963 90.6074V98.262L191.197 98.415C191.299 97.2243 191.588 96.0506 192.065 94.8939C192.575 93.7032 193.255 92.6146 194.106 91.628C194.956 90.6414 195.96 89.8419 197.117 89.2295C198.307 88.6172 199.634 88.311 201.097 88.311C201.709 88.311 202.305 88.4471 202.883 88.7192C203.462 88.9574 203.751 89.3656 203.751 89.944C203.751 90.4543 203.615 90.8455 203.342 91.1177C203.07 91.3898 202.747 91.5259 202.373 91.5259C202.067 91.5259 201.727 91.4409 201.352 91.2708C201.012 91.1007 200.553 91.0156 199.974 91.0156C199.022 91.0156 198.069 91.3048 197.117 91.8831C196.164 92.4275 195.297 93.1759 194.514 94.1285C193.732 95.081 193.102 96.1527 192.626 97.3434C192.184 98.5001 191.963 99.6738 191.963 100.865V113.469C191.963 113.877 191.81 114.235 191.503 114.541C191.197 114.847 190.84 115 190.432 115ZM231.68 101.936C231.68 104.522 231.119 106.852 229.996 108.927C228.873 110.969 227.342 112.585 225.403 113.775C223.464 114.932 221.253 115.51 218.769 115.51C216.354 115.51 214.16 114.932 212.186 113.775C210.247 112.585 208.699 110.969 207.543 108.927C206.42 106.852 205.859 104.522 205.859 101.936C205.859 99.3166 206.42 96.9862 207.543 94.945C208.699 92.9037 210.247 91.2878 212.186 90.0971C214.16 88.9063 216.354 88.311 218.769 88.311C221.253 88.311 223.464 88.9063 225.403 90.0971C227.342 91.2878 228.873 92.9037 229.996 94.945C231.119 96.9862 231.68 99.3166 231.68 101.936ZM228.618 101.936C228.618 99.8609 228.193 98.0238 227.342 96.4249C226.492 94.7919 225.318 93.5161 223.821 92.5976C222.358 91.645 220.674 91.1687 218.769 91.1687C216.932 91.1687 215.265 91.645 213.768 92.5976C212.271 93.5161 211.081 94.7919 210.196 96.4249C209.346 98.0238 208.92 99.8609 208.92 101.936C208.92 104.011 209.346 105.849 210.196 107.447C211.081 109.046 212.271 110.322 213.768 111.275C215.265 112.193 216.932 112.653 218.769 112.653C220.674 112.653 222.358 112.193 223.821 111.275C225.318 110.322 226.492 109.046 227.342 107.447C228.193 105.849 228.618 104.011 228.618 101.936ZM259.569 77.2373C260.011 77.2373 260.369 77.3904 260.641 77.6966C260.947 77.9688 261.1 78.326 261.1 78.7683V113.469C261.1 113.877 260.947 114.235 260.641 114.541C260.335 114.847 259.977 115 259.569 115C259.127 115 258.753 114.847 258.446 114.541C258.174 114.235 258.038 113.877 258.038 113.469V107.396L258.906 106.682C258.906 107.635 258.651 108.638 258.14 109.693C257.63 110.713 256.898 111.666 255.946 112.551C255.027 113.435 253.939 114.149 252.68 114.694C251.455 115.238 250.128 115.51 248.7 115.51C246.42 115.51 244.362 114.915 242.525 113.724C240.722 112.534 239.293 110.918 238.238 108.876C237.184 106.835 236.656 104.505 236.656 101.885C236.656 99.2996 237.184 96.9862 238.238 94.945C239.293 92.8697 240.722 91.2537 242.525 90.0971C244.328 88.9063 246.369 88.311 248.649 88.311C250.043 88.311 251.37 88.5661 252.629 89.0764C253.888 89.5867 254.993 90.2842 255.946 91.1687C256.932 92.0532 257.698 93.0738 258.242 94.2305C258.821 95.3532 259.11 96.5269 259.11 97.7516L258.038 96.9862V78.7683C258.038 78.36 258.174 78.0028 258.446 77.6966C258.753 77.3904 259.127 77.2373 259.569 77.2373ZM248.955 112.653C250.792 112.653 252.391 112.193 253.752 111.275C255.146 110.322 256.235 109.046 257.018 107.447C257.834 105.814 258.242 103.96 258.242 101.885C258.242 99.8439 257.834 98.0238 257.018 96.4249C256.235 94.7919 255.146 93.5161 253.752 92.5976C252.357 91.645 250.758 91.1687 248.955 91.1687C247.186 91.1687 245.587 91.645 244.158 92.5976C242.763 93.5161 241.657 94.7919 240.841 96.4249C240.058 98.0238 239.667 99.8439 239.667 101.885C239.667 103.926 240.058 105.763 240.841 107.396C241.657 109.029 242.763 110.322 244.158 111.275C245.587 112.193 247.186 112.653 248.955 112.653ZM289.426 89.0764C289.868 89.0764 290.225 89.2295 290.497 89.5357C290.803 89.8419 290.956 90.1991 290.956 90.6074V104.998C290.956 108.366 290.004 110.935 288.099 112.704C286.194 114.473 283.625 115.357 280.393 115.357C277.195 115.357 274.644 114.473 272.739 112.704C270.867 110.935 269.932 108.366 269.932 104.998V90.6074C269.932 90.1991 270.068 89.8419 270.34 89.5357C270.646 89.2295 271.021 89.0764 271.463 89.0764C271.905 89.0764 272.262 89.2295 272.534 89.5357C272.841 89.8419 272.994 90.1991 272.994 90.6074V104.998C272.994 107.447 273.64 109.319 274.933 110.611C276.26 111.87 278.08 112.499 280.393 112.499C282.741 112.499 284.578 111.87 285.904 110.611C287.231 109.319 287.895 107.447 287.895 104.998V90.6074C287.895 90.1991 288.031 89.8419 288.303 89.5357C288.575 89.2295 288.949 89.0764 289.426 89.0764ZM310.467 88.311C312.1 88.311 313.597 88.4981 314.958 88.8723C316.319 89.2125 317.407 89.6888 318.224 90.3012C319.074 90.9135 319.5 91.5769 319.5 92.2914C319.5 92.6316 319.381 92.9718 319.143 93.312C318.904 93.6182 318.581 93.7713 318.173 93.7713C317.765 93.7713 317.424 93.6692 317.152 93.4651C316.914 93.261 316.659 93.0228 316.387 92.7506C316.149 92.4785 315.792 92.2233 315.315 91.9852C314.873 91.7811 314.244 91.594 313.427 91.4238C312.611 91.2537 311.675 91.1687 310.62 91.1687C308.715 91.1687 306.997 91.645 305.466 92.5976C303.935 93.5501 302.728 94.8429 301.843 96.4759C300.959 98.0748 300.516 99.8779 300.516 101.885C300.516 103.926 300.942 105.763 301.792 107.396C302.643 109.029 303.816 110.322 305.313 111.275C306.81 112.193 308.562 112.653 310.569 112.653C311.93 112.653 312.985 112.534 313.733 112.295C314.482 112.057 315.128 111.785 315.672 111.479C316.319 111.105 316.778 110.747 317.05 110.407C317.356 110.033 317.748 109.846 318.224 109.846C318.666 109.846 318.989 109.982 319.194 110.254C319.432 110.492 319.551 110.815 319.551 111.224C319.551 111.768 319.143 112.38 318.326 113.061C317.544 113.707 316.455 114.286 315.06 114.796C313.665 115.272 312.066 115.51 310.263 115.51C307.712 115.51 305.466 114.915 303.527 113.724C301.622 112.534 300.125 110.918 299.036 108.876C297.982 106.801 297.455 104.471 297.455 101.885C297.455 99.4016 297.999 97.1393 299.087 95.0981C300.176 93.0568 301.69 91.4238 303.629 90.1991C305.602 88.9404 307.882 88.311 310.467 88.311ZM323.714 89.0254H335.604C336.012 89.0254 336.352 89.1785 336.625 89.4847C336.897 89.7568 337.033 90.0971 337.033 90.5053C337.033 90.8795 336.897 91.2027 336.625 91.4749C336.352 91.747 336.012 91.8831 335.604 91.8831H323.714C323.306 91.8831 322.948 91.747 322.642 91.4749C322.37 91.1687 322.234 90.8285 322.234 90.4543C322.234 90.046 322.37 89.7058 322.642 89.4337C322.948 89.1615 323.306 89.0254 323.714 89.0254ZM328.97 81.8301C329.412 81.8301 329.769 81.9832 330.042 82.2894C330.348 82.5955 330.501 82.9528 330.501 83.361V108.978C330.501 109.931 330.62 110.645 330.858 111.122C331.13 111.598 331.47 111.921 331.879 112.091C332.287 112.227 332.695 112.295 333.103 112.295C333.376 112.295 333.614 112.261 333.818 112.193C334.056 112.091 334.311 112.04 334.583 112.04C334.889 112.04 335.145 112.159 335.349 112.397C335.587 112.636 335.706 112.942 335.706 113.316C335.706 113.792 335.434 114.201 334.889 114.541C334.345 114.847 333.699 115 332.95 115C332.644 115 332.185 114.983 331.572 114.949C330.96 114.881 330.331 114.694 329.684 114.388C329.038 114.047 328.494 113.469 328.051 112.653C327.643 111.836 327.439 110.662 327.439 109.131V83.361C327.439 82.9528 327.575 82.5955 327.847 82.2894C328.153 81.9832 328.528 81.8301 328.97 81.8301ZM342.207 110.867C341.935 110.458 341.799 110.067 341.799 109.693C341.833 109.285 342.054 108.961 342.462 108.723C342.734 108.485 343.041 108.383 343.381 108.417C343.755 108.451 344.095 108.621 344.401 108.927C345.32 110.118 346.426 111.088 347.718 111.836C349.045 112.551 350.61 112.908 352.413 112.908C353.366 112.908 354.301 112.755 355.22 112.448C356.173 112.108 356.955 111.615 357.567 110.969C358.18 110.288 358.486 109.438 358.486 108.417C358.486 107.362 358.18 106.512 357.567 105.866C356.955 105.219 356.156 104.709 355.169 104.335C354.216 103.96 353.196 103.637 352.107 103.365C350.95 103.059 349.828 102.719 348.739 102.344C347.65 101.936 346.681 101.443 345.83 100.865C345.014 100.252 344.35 99.5207 343.84 98.6702C343.33 97.8197 343.075 96.7821 343.075 95.5573C343.075 94.1285 343.466 92.8697 344.248 91.7811C345.031 90.6924 346.085 89.8419 347.412 89.2295C348.773 88.6172 350.304 88.311 352.005 88.311C352.856 88.311 353.774 88.4301 354.761 88.6682C355.747 88.8723 356.717 89.2295 357.669 89.7398C358.622 90.2501 359.473 90.9476 360.221 91.8321C360.527 92.1383 360.68 92.4955 360.68 92.9037C360.68 93.278 360.51 93.6182 360.17 93.9243C359.898 94.1285 359.575 94.2305 359.2 94.2305C358.86 94.2305 358.571 94.0945 358.333 93.8223C357.516 92.9037 356.547 92.2063 355.424 91.73C354.301 91.2537 353.094 91.0156 351.801 91.0156C350.814 91.0156 349.879 91.1857 348.994 91.5259C348.144 91.8321 347.429 92.3084 346.851 92.9548C346.273 93.6012 345.983 94.4517 345.983 95.5063C346.051 96.4929 346.392 97.2924 347.004 97.9047C347.65 98.5171 348.484 99.0274 349.505 99.4357C350.559 99.8439 351.733 100.218 353.026 100.558C354.114 100.83 355.152 101.154 356.139 101.528C357.159 101.902 358.044 102.378 358.792 102.957C359.575 103.501 360.187 104.199 360.629 105.049C361.106 105.9 361.344 106.971 361.344 108.264C361.344 109.761 360.918 111.054 360.068 112.142C359.251 113.231 358.146 114.064 356.751 114.643C355.356 115.221 353.808 115.51 352.107 115.51C350.27 115.51 348.484 115.153 346.749 114.439C345.048 113.724 343.534 112.534 342.207 110.867ZM381.97 115C381.391 115 380.949 114.813 380.643 114.439C380.337 114.064 380.184 113.588 380.184 113.01V111.938C380.184 111.326 380.337 110.85 380.643 110.509C380.949 110.169 381.391 109.999 381.97 109.999H382.327C382.905 109.999 383.347 110.169 383.654 110.509C383.96 110.85 384.113 111.326 384.113 111.938V113.01C384.113 113.588 383.96 114.064 383.654 114.439C383.347 114.813 382.905 115 382.327 115H381.97Z" fill="black"/>
</svg>
